<svg xmlns="http://www.w3.org/2000/svg" fill="none" viewBox="-3.125 -3.125 100 100" height="100" width="100"><g id="search-dollar--search-pay-product-currency-query-magnifying-cash-business-money-glass"><path id="Ellipse 44" stroke="#000000" d="M7.812500000000001 42.96875000000001a35.15625000000001 35.15625000000001 0 1 0 70.31250000000001 0 35.15625000000001 35.15625000000001 0 1 0 -70.31250000000001 0" stroke-width="6.25"></path><path id="Vector 195" stroke="#000000" d="m66.40625000000001 66.40625000000001 19.531250000000004 19.531250000000004" stroke-width="6.25"></path><path id="Vector 2947" stroke="#000000" d="M42.96875000000001 29.296875000000004V19.531250000000004" stroke-width="6.25"></path><path id="Vector 2948" stroke="#000000" d="M42.96875000000001 66.40625000000001v-9.765625000000002" stroke-width="6.25"></path><path id="Vector 3037" stroke="#000000" d="M52.73437500000001 35.15625000000001v-1.9531250000000002a3.9062500000000004 3.9062500000000004 0 0 0 -3.9062500000000004 -3.9062500000000004h-11.718750000000002a3.9062500000000004 3.9062500000000004 0 0 0 -3.9062500000000004 3.9062500000000004v3.6328125000000004a3.9062500000000004 3.9062500000000004 0 0 0 3.1406250000000004 3.8281250000000004l13.250000000000002 2.6562500000000004a3.9062500000000004 3.9062500000000004 0 0 1 3.1406250000000004 3.8281250000000004v5.5859375a3.9062500000000004 3.9062500000000004 0 0 1 -3.9062500000000004 3.9062500000000004h-11.718750000000002a3.9062500000000004 3.9062500000000004 0 0 1 -3.9062500000000004 -3.9062500000000004V50.78125000000001" stroke-width="6.25"></path></g></svg>